<svg width="1362" height="461" viewBox="0 0 1362 461" fill="none" xmlns="http://www.w3.org/2000/svg">
<path opacity="0.25" d="M416 231.998C440.996 196.481 417.789 148.004 405.286 136C405.286 172.452 381.339 192.895 365.996 208.001C350.675 223.119 341 243.368 341 267.999C341 307.768 374.579 340 416 340C457.421 340 491 307.768 491 267.999C491 249.617 477.8 220.724 466.004 208.001C443.675 244.002 431.107 244.002 416 231.998Z" fill="#FF9F1C" stroke="#E63946" stroke-width="10" stroke-linecap="round" stroke-linejoin="round"/>
<path d="M78.6581 344.335C63.5871 344.335 52.4387 339.897 45.2129 331.019C37.9871 322.142 34.3742 308.206 34.3742 289.213V183.303H1.85806V180.826H34.3742V133.445C40.5677 133.239 46.0387 132.826 50.7871 132.206C55.7419 131.381 60.2839 130.348 64.4129 129.11V180.826H113.342V183.303H64.4129V307.484C64.4129 317.6 66.271 325.135 69.9871 330.09C73.9097 335.045 79.7935 337.523 87.6387 337.523C95.6903 337.523 102.4 334.426 107.768 328.232C113.342 322.039 117.368 313.161 119.845 301.6L122.323 302.219C119.226 316.465 114.168 327.097 107.148 334.116C100.129 340.929 90.6323 344.335 78.6581 344.335ZM195.936 340V337.213C204.401 336.8 210.078 335.045 212.969 331.948C216.065 328.852 217.614 323.174 217.614 314.916V230.065C217.614 214.581 214.93 203.019 209.562 195.381C204.401 187.535 196.349 183.613 185.407 183.613C177.769 183.613 170.44 185.781 163.42 190.116C156.401 194.245 150.414 200.335 145.459 208.387V204.981C150.827 195.897 158.156 188.877 167.446 183.923C176.736 178.761 186.956 176.181 198.104 176.181C214.001 176.181 226.181 181.445 234.646 191.974C243.317 202.297 247.652 217.265 247.652 236.877V314.916C247.652 323.174 249.51 328.852 253.227 331.948C257.149 335.045 264.272 336.8 274.594 337.213V340C271.91 339.794 268.298 339.69 263.756 339.69C259.214 339.484 254.259 339.277 248.891 339.071C243.523 338.865 238.259 338.761 233.098 338.761C225.872 338.761 218.749 338.968 211.73 339.381C204.71 339.587 199.446 339.794 195.936 340ZM89.4073 340V337.213C99.7298 336.8 106.749 335.045 110.465 331.948C114.181 328.852 116.04 323.174 116.04 314.916V130.968C116.04 121.471 114.078 114.761 110.156 110.839C106.44 106.71 99.5234 104.335 89.4073 103.716V100.929C93.3298 101.135 97.046 101.342 100.556 101.548C104.065 101.755 107.678 101.858 111.394 101.858C117.381 101.858 123.265 101.548 129.046 100.929C135.033 100.103 140.71 98.9677 146.078 97.5226V314.916C146.078 322.968 147.523 328.645 150.414 331.948C153.51 335.045 159.394 336.8 168.065 337.213V340C163.73 339.794 158.156 339.587 151.343 339.381C144.736 338.968 137.923 338.761 130.904 338.761C123.885 338.761 116.556 338.968 108.917 339.381C101.278 339.587 94.775 339.794 89.4073 340ZM332.49 344.335C318.038 344.335 305.341 340.929 294.399 334.116C283.664 327.097 275.199 317.29 269.006 304.697C263.019 292.103 260.025 277.445 260.025 260.723C260.025 243.794 263.019 229.032 269.006 216.439C275.199 203.639 283.87 193.729 295.019 186.71C306.373 179.69 319.793 176.181 335.277 176.181C347.87 176.181 358.812 178.658 368.102 183.613C377.599 188.361 384.825 195.794 389.78 205.91C394.941 215.819 397.522 228.516 397.522 244H280.154L279.844 241.213H366.554C366.967 229.445 365.935 218.916 363.457 209.626C361.186 200.129 357.573 192.594 352.619 187.019C347.664 181.445 341.264 178.658 333.419 178.658C323.509 178.658 314.631 183.819 306.786 194.142C298.941 204.258 294.193 220.155 292.541 241.832L292.851 242.142C292.644 245.032 292.438 247.923 292.231 250.813C292.231 253.497 292.231 256.284 292.231 259.174C292.231 283.123 296.773 302.013 305.857 315.845C314.941 329.471 327.741 336.284 344.257 336.284C354.786 336.284 364.593 333.29 373.677 327.303C382.76 321.316 389.883 312.129 395.044 299.742L397.522 300.981C392.567 314.606 384.309 325.239 372.748 332.877C361.393 340.516 347.973 344.335 332.49 344.335Z" fill="#F4E8C1"/>
<path d="M511.065 344.335C496.613 344.335 483.916 340.929 472.974 334.116C462.239 327.097 453.774 317.29 447.581 304.697C441.594 292.103 438.6 277.445 438.6 260.723C438.6 243.794 441.594 229.032 447.581 216.439C453.774 203.639 462.445 193.729 473.594 186.71C484.948 179.69 498.368 176.181 513.852 176.181C526.445 176.181 537.387 178.658 546.677 183.613C556.174 188.361 563.4 195.794 568.355 205.91C573.516 215.819 576.097 228.516 576.097 244H458.729L458.419 241.213H545.129C545.542 229.445 544.51 218.916 542.032 209.626C539.761 200.129 536.148 192.594 531.194 187.019C526.239 181.445 519.839 178.658 511.994 178.658C502.084 178.658 493.206 183.819 485.361 194.142C477.516 204.258 472.768 220.155 471.116 241.832L471.426 242.142C471.219 245.032 471.013 247.923 470.806 250.813C470.806 253.497 470.806 256.284 470.806 259.174C470.806 283.123 475.348 302.013 484.432 315.845C493.516 329.471 506.316 336.284 522.832 336.284C533.361 336.284 543.168 333.29 552.252 327.303C561.335 321.316 568.458 312.129 573.619 299.742L576.097 300.981C571.142 314.606 562.884 325.239 551.323 332.877C539.968 340.516 526.548 344.335 511.065 344.335ZM764.26 340V337.213C772.724 336.8 778.402 335.045 781.292 331.948C784.389 328.852 785.937 323.174 785.937 314.916V230.065C785.937 214.787 783.356 203.226 778.195 195.381C773.034 187.535 765.395 183.613 755.279 183.613C746.402 183.613 738.247 186.4 730.815 191.974C723.382 197.342 717.602 205.084 713.473 215.2L713.163 212.413C717.705 200.852 724.827 191.974 734.531 185.781C744.234 179.381 755.176 176.181 767.356 176.181C783.047 176.181 795.021 181.445 803.279 191.974C811.537 202.503 815.666 217.471 815.666 236.877V314.916C815.666 323.174 817.524 328.852 821.24 331.948C825.163 335.045 832.285 336.8 842.608 337.213V340C840.131 339.794 836.518 339.69 831.769 339.69C827.227 339.484 822.273 339.277 816.905 339.071C811.537 338.865 806.273 338.761 801.111 338.761C793.885 338.761 786.763 338.968 779.744 339.381C772.931 339.587 767.769 339.794 764.26 340ZM562.66 340V337.213C572.776 336.8 579.692 335.045 583.408 331.948C587.331 328.852 589.292 323.174 589.292 314.916V210.245C589.292 200.748 587.227 194.039 583.098 190.116C579.176 186.194 572.363 183.819 562.66 182.994V180.516C566.169 180.723 569.679 180.929 573.189 181.135C576.698 181.342 580.311 181.445 584.027 181.445C590.427 181.445 596.518 181.135 602.298 180.516C608.079 179.69 613.653 178.555 619.021 177.11V314.916C619.021 323.174 620.569 328.852 623.666 331.948C626.969 335.045 632.647 336.8 640.698 337.213V340C635.537 339.794 629.86 339.587 623.666 339.381C617.473 338.968 610.866 338.761 603.847 338.761C597.034 338.761 590.015 338.968 582.789 339.381C575.769 339.587 569.06 339.794 562.66 340ZM666.092 340V337.213C674.35 336.8 679.924 335.045 682.815 331.948C685.911 328.852 687.46 323.174 687.46 314.916V230.065C687.46 214.787 684.879 203.226 679.718 195.381C674.763 187.535 667.124 183.613 656.802 183.613C649.163 183.613 642.04 185.781 635.434 190.116C629.034 194.245 623.356 200.335 618.402 208.387L618.711 204.981C623.666 195.897 630.582 188.877 639.46 183.923C648.544 178.761 658.35 176.181 668.879 176.181C684.569 176.181 696.544 181.445 704.802 191.974C713.266 202.297 717.498 217.161 717.498 236.568V314.916C717.498 323.174 718.944 328.852 721.834 331.948C724.931 335.045 730.608 336.8 738.866 337.213V340C735.563 339.794 730.402 339.587 723.382 339.381C716.569 338.968 709.653 338.761 702.634 338.761C695.615 338.761 688.595 338.968 681.576 339.381C674.763 339.587 669.602 339.794 666.092 340ZM910.87 344.335C899.515 344.335 889.606 341.961 881.141 337.213C872.883 332.258 867.412 326.168 864.728 318.942L865.657 316.774C868.135 322.968 872.573 328.129 878.973 332.258C885.58 336.387 893.012 338.452 901.27 338.452C916.341 338.452 927.902 331.639 935.954 318.013C944.212 304.387 948.341 284.981 948.341 259.794C948.341 235.845 944.522 217.161 936.883 203.742C929.451 190.116 918.922 183.303 905.296 183.303C897.038 183.303 888.986 186.09 881.141 191.665C873.296 197.239 868.031 204.258 865.348 212.723L864.728 211.484C867.825 201.161 874.328 192.697 884.238 186.09C894.354 179.484 905.606 176.181 917.993 176.181C930.793 176.181 941.838 179.587 951.128 186.4C960.625 193.213 967.851 202.813 972.806 215.2C977.967 227.381 980.548 241.729 980.548 258.245C980.548 276 977.657 291.381 971.877 304.387C966.096 317.187 957.941 327.097 947.412 334.116C936.883 340.929 924.702 344.335 910.87 344.335ZM834.07 345.884L832.212 343.406C833.657 341.548 834.689 339.587 835.309 337.523C836.135 335.252 836.651 332.774 836.857 330.09C837.27 327.2 837.477 323.897 837.477 320.181V130.658C837.477 121.368 835.619 114.658 831.902 110.529C828.393 106.4 821.373 104.026 810.844 103.406V100.619C814.354 100.826 817.864 101.032 821.373 101.239C825.089 101.445 828.702 101.548 832.212 101.548C838.819 101.548 845.115 101.239 851.102 100.619C857.089 99.7935 862.56 98.6581 867.515 97.2129V322.968C863.799 324.206 859.773 325.961 855.438 328.232C851.102 330.297 847.077 332.877 843.36 335.974C839.851 338.865 836.754 342.168 834.07 345.884ZM1052.86 344.335C1038.41 344.335 1025.72 340.929 1014.77 334.116C1004.04 327.097 995.574 317.29 989.381 304.697C983.394 292.103 980.4 277.445 980.4 260.723C980.4 243.794 983.394 229.032 989.381 216.439C995.574 203.639 1004.25 193.729 1015.39 186.71C1026.75 179.69 1040.17 176.181 1055.65 176.181C1068.25 176.181 1079.19 178.658 1088.48 183.613C1097.97 188.361 1105.2 195.794 1110.15 205.91C1115.32 215.819 1117.9 228.516 1117.9 244H1000.53L1000.22 241.213H1086.93C1087.34 229.445 1086.31 218.916 1083.83 209.626C1081.56 200.129 1077.95 192.594 1072.99 187.019C1068.04 181.445 1061.64 178.658 1053.79 178.658C1043.88 178.658 1035.01 183.819 1027.16 194.142C1019.32 204.258 1014.57 220.155 1012.92 241.832L1013.23 242.142C1013.02 245.032 1012.81 247.923 1012.61 250.813C1012.61 253.497 1012.61 256.284 1012.61 259.174C1012.61 283.123 1017.15 302.013 1026.23 315.845C1035.32 329.471 1048.12 336.284 1064.63 336.284C1075.16 336.284 1084.97 333.29 1094.05 327.303C1103.14 321.316 1110.26 312.129 1115.42 299.742L1117.9 300.981C1112.94 314.606 1104.68 325.239 1093.12 332.877C1081.77 340.516 1068.35 344.335 1052.86 344.335ZM1104.46 340V337.213C1114.58 336.8 1121.49 335.045 1125.21 331.948C1129.13 328.852 1131.09 323.174 1131.09 314.916V210.245C1131.09 200.748 1129.03 194.039 1124.9 190.116C1120.98 186.194 1114.16 183.819 1104.46 182.994V180.516C1108.18 180.723 1111.69 180.929 1114.99 181.135C1118.5 181.342 1122.21 181.445 1126.14 181.445C1138.73 181.445 1150.29 180 1160.82 177.11V312.129C1160.82 321.006 1163.61 327.303 1169.18 331.019C1174.76 334.735 1184.05 336.8 1197.05 337.213V340C1193.75 339.794 1189.31 339.69 1183.74 339.69C1178.16 339.484 1172.18 339.277 1165.78 339.071C1159.38 338.865 1153.08 338.761 1146.89 338.761C1137.8 338.761 1129.44 338.968 1121.8 339.381C1114.16 339.587 1108.38 339.794 1104.46 340ZM1219.35 223.871C1215.22 223.871 1211.81 222.632 1209.13 220.155C1206.45 217.677 1205.1 214.477 1205.1 210.555C1205.1 207.665 1205.62 205.187 1206.65 203.123C1207.89 200.852 1209.03 198.684 1210.06 196.619C1211.3 194.555 1211.92 192.387 1211.92 190.116C1211.92 185.574 1208.61 183.303 1202.01 183.303C1197.05 183.303 1191.89 184.335 1186.52 186.4C1181.16 188.465 1176.2 191.355 1171.66 195.071C1167.12 198.787 1163.4 203.226 1160.51 208.387L1160.2 205.29C1165.36 196.206 1172.38 189.084 1181.26 183.923C1190.34 178.761 1199.63 176.181 1209.13 176.181C1218.01 176.181 1225.03 178.555 1230.19 183.303C1235.56 188.052 1238.24 194.452 1238.24 202.503C1238.24 208.903 1236.49 214.065 1232.98 217.987C1229.47 221.91 1224.92 223.871 1219.35 223.871ZM1286.55 344.335C1278.09 344.335 1270.97 343.406 1265.18 341.548C1259.4 339.897 1254.55 338.245 1250.63 336.594C1246.71 334.735 1243.2 333.806 1240.1 333.806C1234.32 333.806 1230.19 337.213 1227.71 344.026H1224.93C1225.55 337.832 1225.96 331.535 1226.17 325.135C1226.58 318.529 1226.68 311.51 1226.48 304.077C1226.48 296.439 1226.37 288.181 1226.17 279.303H1228.95C1231.84 300.774 1237.62 316.465 1246.29 326.374C1255.17 336.284 1267.46 341.239 1283.15 341.239C1295.33 341.239 1304.72 338.452 1311.33 332.877C1317.93 327.303 1321.24 319.665 1321.24 309.961C1321.24 300.877 1318.14 293.445 1311.95 287.665C1305.75 281.884 1295.43 276.723 1280.98 272.181C1263.22 265.987 1250.32 258.865 1242.27 250.813C1234.22 242.555 1230.19 232.439 1230.19 220.465C1230.19 207.045 1234.63 196.31 1243.51 188.258C1252.59 180.206 1264.57 176.181 1279.43 176.181C1287.07 176.181 1293.47 177.006 1298.63 178.658C1303.79 180.31 1308.23 182.065 1311.95 183.923C1315.87 185.574 1319.48 186.4 1322.78 186.4C1325.26 186.4 1327.33 185.677 1328.98 184.232C1330.63 182.581 1332.08 180 1333.31 176.49H1335.79C1335.38 181.445 1334.97 186.606 1334.55 191.974C1334.35 197.342 1334.24 203.123 1334.24 209.316C1334.45 215.303 1334.66 222.116 1334.86 229.755H1332.08C1330.01 214.271 1324.44 201.987 1315.35 192.903C1306.48 183.613 1295.64 178.968 1282.84 178.968C1273.13 178.968 1265.39 181.548 1259.61 186.71C1254.04 191.665 1251.25 198.374 1251.25 206.839C1251.25 215.51 1254.55 222.735 1261.16 228.516C1267.77 234.297 1279.22 239.974 1295.53 245.548C1312.05 250.916 1323.92 257.523 1331.15 265.368C1338.37 273.213 1341.98 283.329 1341.98 295.716C1341.98 310.787 1337.03 322.658 1327.12 331.329C1317.42 340 1303.89 344.335 1286.55 344.335Z" fill="#E63946"/>
</svg>
