<svg width="1467" height="461" viewBox="0 0 1467 461" fill="none" xmlns="http://www.w3.org/2000/svg">
<path d="M416 231.998C440.996 196.481 417.789 148.004 405.286 136C405.286 172.452 381.339 192.895 365.996 208.001C350.675 223.119 341 243.368 341 267.999C341 307.768 374.579 340 416 340C457.421 340 491 307.768 491 267.999C491 249.617 477.8 220.724 466.004 208.001C443.675 244.002 431.107 244.002 416 231.998Z" fill="#FF9F1C" stroke="#E63946" stroke-width="10" stroke-linecap="round" stroke-linejoin="round"/>
<g opacity="0.4">
<path d="M88.2581 344.335C72.7742 344.335 61.2129 339.897 53.5742 331.019C45.9355 321.935 42.1161 308.31 42.1161 290.142V192.594H4.95484V180.826H42.1161V133.445C47.8968 133.239 53.2645 132.826 58.2194 132.206C63.1742 131.381 67.7161 130.348 71.8452 129.11V180.826H126.039V192.594H71.8452V298.813C71.8452 308.723 73.8065 316.052 77.729 320.8C81.6516 325.342 87.6387 327.613 95.6903 327.613C103.123 327.613 109.213 325.239 113.961 320.49C118.916 315.742 122.632 308.723 125.11 299.432L134.71 302.219C131.613 316.671 126.245 327.303 118.606 334.116C111.174 340.929 101.058 344.335 88.2581 344.335ZM223.357 340V327.923C232.441 327.716 238.635 326.065 241.938 322.968C245.241 319.665 246.893 313.884 246.893 305.626V233.161C246.893 219.535 244.209 209.419 238.841 202.813C233.68 196 225.938 192.594 215.615 192.594C207.151 192.594 199.202 194.968 191.77 199.716C184.544 204.258 178.144 211.071 172.57 220.155L172.88 206.529C178.041 197.032 185.37 189.6 194.867 184.232C204.364 178.865 214.893 176.181 226.454 176.181C242.764 176.181 255.254 181.239 263.925 191.355C272.596 201.471 276.931 216.026 276.931 235.019V305.626C276.931 313.884 279.409 319.665 284.364 322.968C289.525 326.065 298.609 327.716 311.615 327.923V340C308.519 339.794 304.183 339.69 298.609 339.69C293.241 339.484 287.357 339.277 280.957 339.071C274.557 338.865 268.364 338.761 262.377 338.761C254.738 338.761 247.202 338.968 239.77 339.381C232.544 339.587 227.073 339.794 223.357 340ZM109.706 340V327.923C122.919 327.716 132.002 326.065 136.957 322.968C141.912 319.665 144.39 313.884 144.39 305.626V140.258C144.39 130.348 141.809 123.432 136.648 119.51C131.693 115.381 122.712 113.213 109.706 113.006V100.929C114.041 101.135 118.377 101.342 122.712 101.548C127.048 101.755 131.486 101.858 136.028 101.858C143.048 101.858 149.757 101.548 156.157 100.929C162.764 100.103 168.854 98.9677 174.428 97.5226V305.626C174.428 313.884 176.08 319.665 179.383 322.968C182.686 326.065 188.88 327.716 197.964 327.923V340C193.835 339.794 188.157 339.587 180.931 339.381C173.912 338.968 166.583 338.761 158.944 338.761C150.48 338.761 141.602 338.968 132.312 339.381C123.022 339.587 115.486 339.794 109.706 340ZM373.265 344.335C358.401 344.335 345.394 341.032 334.246 334.426C323.304 327.613 314.84 317.91 308.852 305.316C302.865 292.723 299.872 277.858 299.872 260.723C299.872 243.381 302.865 228.413 308.852 215.819C314.84 203.019 323.51 193.213 334.865 186.4C346.22 179.587 359.743 176.181 375.433 176.181C388.852 176.181 400.414 178.761 410.117 183.923C420.027 189.084 427.562 197.239 432.723 208.387C438.091 219.535 440.569 234.09 440.156 252.052H319.691L319.381 240.284H409.188C409.394 230.168 408.259 221.187 405.781 213.342C403.304 205.497 399.381 199.303 394.014 194.761C388.852 190.219 382.143 187.948 373.885 187.948C363.356 187.948 354.065 192.387 346.014 201.265C338.169 210.142 333.523 224.077 332.078 243.071L332.388 244C332.181 246.065 332.078 248.335 332.078 250.813C332.078 253.29 332.078 255.871 332.078 258.555C332.078 280.439 336.31 297.368 344.775 309.342C353.24 321.11 365.42 326.994 381.317 326.994C391.64 326.994 400.827 324.516 408.878 319.561C417.136 314.4 423.949 306.452 429.317 295.716L440.156 301.91C434.788 315.329 426.22 325.755 414.452 333.187C402.891 340.619 389.162 344.335 373.265 344.335Z" fill="#F4E8C1"/>
<path d="M562.715 344.335C547.851 344.335 534.844 341.032 523.696 334.426C512.754 327.613 504.29 317.91 498.302 305.316C492.315 292.723 489.322 277.858 489.322 260.723C489.322 243.381 492.315 228.413 498.302 215.819C504.29 203.019 512.96 193.213 524.315 186.4C535.67 179.587 549.193 176.181 564.883 176.181C578.302 176.181 589.864 178.761 599.567 183.923C609.477 189.084 617.012 197.239 622.173 208.387C627.541 219.535 630.019 234.09 629.606 252.052H509.141L508.831 240.284H598.638C598.844 230.168 597.709 221.187 595.231 213.342C592.754 205.497 588.831 199.303 583.464 194.761C578.302 190.219 571.593 187.948 563.335 187.948C552.806 187.948 543.515 192.387 535.464 201.265C527.619 210.142 522.973 224.077 521.528 243.071L521.838 244C521.631 246.065 521.528 248.335 521.528 250.813C521.528 253.29 521.528 255.871 521.528 258.555C521.528 280.439 525.76 297.368 534.225 309.342C542.69 321.11 554.87 326.994 570.767 326.994C581.09 326.994 590.277 324.516 598.328 319.561C606.586 314.4 613.399 306.452 618.767 295.716L629.606 301.91C624.238 315.329 615.67 325.755 603.902 333.187C592.341 340.619 578.612 344.335 562.715 344.335ZM834.414 340V327.923C843.085 327.716 848.969 326.065 852.065 322.968C855.369 319.665 857.02 313.884 857.02 305.626V232.852C857.02 219.639 854.543 209.626 849.588 202.813C844.633 196 837.304 192.594 827.601 192.594C818.93 192.594 810.878 195.174 803.446 200.335C796.014 205.29 789.407 213.239 783.627 224.181L782.078 213.652C787.859 200.645 795.704 191.148 805.614 185.161C815.73 179.174 826.569 176.181 838.13 176.181C853.82 176.181 865.898 181.342 874.362 191.665C882.827 201.781 887.059 216.232 887.059 235.019V305.626C887.059 313.884 889.536 319.665 894.491 322.968C899.652 326.065 908.736 327.716 921.743 327.923V340C918.646 339.794 914.31 339.69 908.736 339.69C903.369 339.484 897.485 339.277 891.085 339.071C884.685 338.865 878.491 338.761 872.504 338.761C865.072 338.761 857.743 338.968 850.517 339.381C843.498 339.587 838.13 339.794 834.414 340ZM623.833 340V327.923C636.84 327.716 645.82 326.065 650.775 322.968C655.936 319.665 658.517 313.884 658.517 305.626V219.845C658.517 209.935 655.936 203.019 650.775 199.097C645.614 195.174 636.633 193.006 623.833 192.594V180.516C627.962 180.723 632.194 180.929 636.53 181.135C640.865 181.342 645.407 181.445 650.156 181.445C657.175 181.445 663.885 181.135 670.285 180.516C676.685 179.69 682.775 178.555 688.556 177.11V305.626C688.556 313.884 690.104 319.665 693.201 322.968C696.504 326.065 702.491 327.716 711.162 327.923V340C706.62 339.794 700.943 339.587 694.13 339.381C687.523 338.968 680.504 338.761 673.072 338.761C664.607 338.761 655.833 338.968 646.749 339.381C637.665 339.587 630.027 339.794 623.833 340ZM735.007 340V327.923C743.678 327.716 749.562 326.065 752.659 322.968C755.962 319.665 757.614 313.884 757.614 305.626V232.852C757.614 219.639 755.136 209.626 750.181 202.813C745.227 196 737.898 192.594 728.194 192.594C719.936 192.594 712.298 194.968 705.278 199.716C698.259 204.258 692.065 211.071 686.698 220.155L687.007 206.529C691.962 197.032 698.981 189.6 708.065 184.232C717.356 178.865 727.678 176.181 739.033 176.181C754.517 176.181 766.491 181.239 774.956 191.355C783.42 201.471 787.652 216.026 787.652 235.019V305.626C787.652 313.884 789.201 319.665 792.298 322.968C795.601 326.065 801.588 327.716 810.259 327.923V340C806.749 339.794 801.381 339.587 794.156 339.381C787.136 338.968 780.014 338.761 772.788 338.761C765.562 338.761 758.336 338.968 751.11 339.381C744.091 339.587 738.723 339.794 735.007 340ZM994.265 344.335C982.498 344.335 972.381 341.755 963.917 336.594C955.452 331.432 949.465 325.548 945.956 318.942L949.672 308.103C952.356 314.503 957.104 319.768 963.917 323.897C970.73 328.026 978.472 330.09 987.143 330.09C1002.21 330.09 1013.77 324 1021.83 311.819C1029.88 299.639 1033.9 282.09 1033.9 259.174C1033.9 237.91 1030.29 221.394 1023.07 209.626C1016.05 197.858 1005.83 191.974 992.407 191.974C983.117 191.974 974.343 194.968 966.085 200.955C957.827 206.735 952.356 214.065 949.672 222.942L947.504 215.819C950.394 204.052 956.898 194.555 967.014 187.329C977.336 179.897 989.207 176.181 1002.63 176.181C1015.63 176.181 1026.78 179.587 1036.07 186.4C1045.57 193.006 1052.9 202.4 1058.06 214.581C1063.43 226.761 1066.11 241.11 1066.11 257.626C1066.11 275.381 1063.12 290.761 1057.13 303.768C1051.14 316.568 1042.78 326.581 1032.05 333.806C1021.31 340.826 1008.72 344.335 994.265 344.335ZM919.633 344.955L910.962 335.045C914.059 332.361 916.33 329.677 917.775 326.994C919.427 324.103 920.562 320.903 921.181 317.394C921.801 313.884 922.11 309.548 922.11 304.387V139.948C922.11 130.452 919.53 123.639 914.369 119.51C909.414 115.381 900.433 113.11 887.427 112.697V100.619C891.143 100.826 895.169 101.032 899.504 101.239C904.046 101.445 908.381 101.548 912.51 101.548C920.356 101.548 927.478 101.239 933.878 100.619C940.485 99.7935 946.472 98.6581 951.839 97.2129V323.587C948.123 325.032 944.304 326.89 940.381 329.161C936.459 331.226 932.743 333.6 929.233 336.284C925.723 338.761 922.523 341.652 919.633 344.955ZM1143.52 344.335C1128.65 344.335 1115.64 341.032 1104.5 334.426C1093.55 327.613 1085.09 317.91 1079.1 305.316C1073.12 292.723 1070.12 277.858 1070.12 260.723C1070.12 243.381 1073.12 228.413 1079.1 215.819C1085.09 203.019 1093.76 193.213 1105.12 186.4C1116.47 179.587 1129.99 176.181 1145.68 176.181C1159.1 176.181 1170.66 178.761 1180.37 183.923C1190.28 189.084 1197.81 197.239 1202.97 208.387C1208.34 219.535 1210.82 234.09 1210.41 252.052H1089.94L1089.63 240.284H1179.44C1179.64 230.168 1178.51 221.187 1176.03 213.342C1173.55 205.497 1169.63 199.303 1164.26 194.761C1159.1 190.219 1152.39 187.948 1144.13 187.948C1133.61 187.948 1124.32 192.387 1116.26 201.265C1108.42 210.142 1103.77 224.077 1102.33 243.071L1102.64 244C1102.43 246.065 1102.33 248.335 1102.33 250.813C1102.33 253.29 1102.33 255.871 1102.33 258.555C1102.33 280.439 1106.56 297.368 1115.02 309.342C1123.49 321.11 1135.67 326.994 1151.57 326.994C1161.89 326.994 1171.08 324.516 1179.13 319.561C1187.39 314.4 1194.2 306.452 1199.57 295.716L1210.41 301.91C1205.04 315.329 1196.47 325.755 1184.7 333.187C1173.14 340.619 1159.41 344.335 1143.52 344.335ZM1204.63 340V327.923C1217.85 327.716 1226.93 326.065 1231.88 322.968C1236.84 319.665 1239.32 313.884 1239.32 305.626V219.845C1239.32 209.935 1236.63 203.019 1231.27 199.097C1226.1 195.174 1217.23 193.006 1204.63 192.594V180.516C1208.97 180.723 1213.3 180.929 1217.64 181.135C1221.98 181.342 1226.41 181.445 1230.96 181.445C1244.79 181.445 1257.59 180 1269.36 177.11V304.077C1269.36 312.748 1272.56 318.839 1278.96 322.348C1285.36 325.858 1296.5 327.716 1312.4 327.923V340C1308.68 339.794 1303.63 339.69 1297.23 339.69C1290.83 339.484 1283.91 339.277 1276.48 339.071C1269.05 338.865 1261.82 338.761 1254.8 338.761C1244.68 338.761 1234.98 338.968 1225.69 339.381C1216.4 339.587 1209.38 339.794 1204.63 340ZM1327.88 230.684C1323.34 230.684 1319.73 229.445 1317.05 226.968C1314.36 224.284 1313.02 220.981 1313.02 217.058C1313.02 214.374 1313.54 212 1314.57 209.935C1315.6 207.665 1316.63 205.6 1317.67 203.742C1318.7 201.677 1319.21 199.716 1319.21 197.858C1319.21 193.729 1316.01 191.665 1309.61 191.665C1304.66 191.665 1299.39 192.903 1293.82 195.381C1288.25 197.858 1283.19 201.265 1278.65 205.6C1274.1 209.729 1270.59 214.477 1268.12 219.845L1267.5 206.839C1273.07 197.135 1280.19 189.6 1288.87 184.232C1297.74 178.865 1307.03 176.181 1316.74 176.181C1326.23 176.181 1333.87 178.968 1339.65 184.542C1345.43 189.91 1348.32 197.135 1348.32 206.219C1348.32 213.445 1346.36 219.329 1342.44 223.871C1338.72 228.413 1333.87 230.684 1327.88 230.684ZM1410.82 344.335C1401.94 344.335 1394.41 343.303 1388.21 341.239C1382.23 339.381 1377.27 337.626 1373.35 335.974C1369.43 334.116 1366.12 333.187 1363.44 333.187C1358.69 333.187 1355.18 336.387 1352.91 342.787H1341.14C1341.56 337.832 1341.87 332.465 1342.07 326.684C1342.28 320.903 1342.38 314.297 1342.38 306.865C1342.59 299.226 1342.59 290.555 1342.38 280.852H1354.15C1357.04 297.987 1362.82 310.787 1371.49 319.252C1380.37 327.716 1392.24 331.948 1407.1 331.948C1417.84 331.948 1426.2 329.677 1432.19 325.135C1438.18 320.387 1441.17 313.781 1441.17 305.316C1441.17 297.265 1438.07 290.761 1431.88 285.806C1425.89 280.645 1415.36 276 1400.29 271.871C1381.5 266.71 1367.78 260 1359.1 251.742C1350.43 243.277 1346.1 232.748 1346.1 220.155C1346.1 206.735 1350.54 196.103 1359.41 188.258C1368.29 180.206 1380.27 176.181 1395.34 176.181C1403.39 176.181 1410.2 177.11 1415.78 178.968C1421.35 180.826 1425.99 182.684 1429.71 184.542C1433.63 186.4 1437.14 187.329 1440.24 187.329C1442.3 187.329 1444.06 186.606 1445.5 185.161C1446.95 183.716 1448.19 181.342 1449.22 178.039H1461.3C1460.88 182.374 1460.58 187.019 1460.37 191.974C1460.16 196.723 1459.96 202.297 1459.75 208.697C1459.75 214.89 1459.85 222.426 1460.06 231.303H1447.98C1445.92 217.884 1440.45 207.355 1431.57 199.716C1422.69 191.871 1412.06 187.948 1399.67 187.948C1390.59 187.948 1383.57 190.116 1378.61 194.452C1373.87 198.581 1371.49 204.465 1371.49 212.103C1371.49 220.155 1374.79 226.865 1381.4 232.232C1388.01 237.394 1399.47 242.245 1415.78 246.787C1433.74 251.948 1446.64 258.348 1454.48 265.987C1462.54 273.626 1466.56 283.742 1466.56 296.335C1466.56 311.2 1461.61 322.968 1451.7 331.639C1441.79 340.103 1428.16 344.335 1410.82 344.335Z" fill="#E63946"/>
</g>
</svg>
